<?xml version="1.0" encoding="utf-8"?>
<!-- Generator: Adobe Illustrator 16.0.0, SVG Export Plug-In . SVG Version: 6.00 Build 0)  -->
<!DOCTYPE svg PUBLIC "-//W3C//DTD SVG 1.1//EN" "http://www.w3.org/Graphics/SVG/1.1/DTD/svg11.dtd">
<svg version="1.1" id="Layer_1" xmlns="http://www.w3.org/2000/svg" xmlns:xlink="http://www.w3.org/1999/xlink" x="0px" y="0px"
	 width="528px" height="537px" viewBox="0 0 528 537" enable-background="new 0 0 528 537" xml:space="preserve">
<path fill="#909090" d="M421.459,128.637c-13.349-7.888-18.81-9.102-33.373-16.383c8.495-15.776,15.776-28.519,30.946-40.047
	c18.203-13.35,32.159-15.776,43.688-26.699c-13.35-3.034-29.732-10.922-41.868-15.776C378.984,13.956,329.229,3.034,278.866,0
	h-47.329C171.466,1.213,118.676,20.024,76.809,55.217C44.649,83.129,0.961,141.986,0.961,199.63
	C-4.5,300.355,27.053,345.864,113.215,403.509c-7.281,30.945-47.329,55.217-78.881,62.498C55.571,495.739,201.805,537,258.842,537
	h37.621C522.185,537,617.449,246.353,421.459,128.637z M408.717,445.376c-114.682,81.915-231.79,19.417-266.376,16.384
	c6.674-23.665,33.373-38.834,32.159-65.532c-0.607-16.99-19.417-33.373-19.417-83.736c0-78.881,66.746-154.122,145.627-154.122
	h24.878c72.813,0,145.627,67.959,145.627,141.379C471.215,361.641,461.507,408.362,408.717,445.376z"/>
</svg>
